HIERARCHY
ROOT Hips
{
	OFFSET 0.00000 0.00000 0.00000
	CHANNELS 6 Xposition Yposition Zposition Zrotation Yrotation Xrotation 
	JOINT LHipJoint
	{
		OFFSET 0 0 0
		CHANNELS 3 Zrotation Yrotation Xrotation
		JOINT LeftHip
		{
			OFFSET 1.34019 -1.87553 0.90315
			CHANNELS 3 Zrotation Yrotation Xrotation
			JOINT LeftKnee
			{
				OFFSET 2.55316 -7.01474 0.00000
				CHANNELS 3 Zrotation Yrotation Xrotation
				JOINT LeftAnkle
				{
					OFFSET 2.64657 -7.27139 0.00000
					CHANNELS 3 Zrotation Yrotation Xrotation
					JOINT LeftToe
					{
						OFFSET 0.24207 -0.66507 2.14489
						CHANNELS 3 Zrotation Yrotation Xrotation
						End Site
						{
							OFFSET 0.00000 -0.00000 1.12451
						}
					}
				}
			}
		}
	}
	JOINT RHipJoint
	{
		OFFSET 0 0 0
		CHANNELS 3 Zrotation Yrotation Xrotation
		JOINT RightHip
		{
			OFFSET -1.28320 -1.87553 0.90315
			CHANNELS 3 Zrotation Yrotation Xrotation
			JOINT RightKnee
			{
				OFFSET -2.60484 -7.15674 0.00000
				CHANNELS 3 Zrotation Yrotation Xrotation
				JOINT RightAnkle
				{
					OFFSET -2.60296 -7.15159 0.00000
					CHANNELS 3 Zrotation Yrotation Xrotation
					JOINT RightToe
					{
						OFFSET -0.31082 -0.85398 2.28998
						CHANNELS 3 Zrotation Yrotation Xrotation
						End Site
						{
							OFFSET -0.00000 -0.00000 1.21611
						}
					}
				}
			}
		}
	}
	JOINT lowerback
	{
		OFFSET 0 0 0
		CHANNELS 3 Zrotation Yrotation Xrotation
		JOINT Chest
		{
			OFFSET -0.00160 2.05581 -0.15156
			CHANNELS 3 Zrotation Yrotation Xrotation
			JOINT Chest2
			{
				OFFSET 0.04594 2.06326 -0.01617
				CHANNELS 3 Zrotation Yrotation Xrotation
				JOINT lowerneck
				{
					OFFSET 0 0 0
					CHANNELS 3 Zrotation Yrotation Xrotation
					JOINT Neck
					{
						OFFSET 0.03753 1.73883 0.26751
						CHANNELS 3 Zrotation Yrotation Xrotation
						JOINT Head
						{
							OFFSET -0.09795 1.76129 -0.31794
							CHANNELS 3 Zrotation Yrotation Xrotation
							End Site
							{
								OFFSET -0.03611 1.79987 -0.13846
							}
						}
					}
				}
				JOINT LeftCollar
				{
					OFFSET 0 0 0
					CHANNELS 3 Zrotation Yrotation Xrotation
					JOINT LeftShoulder
					{
						OFFSET 3.30667 1.29205 -0.22445
CHANNELS 3 Zrotation Xrotation Yrotation
						JOINT LeftElbow
						{
OFFSET 0 -4.927850 -0.000000
CHANNELS 3 Zrotation Xrotation Yrotation
							JOINT LeftWrist
							{
OFFSET 0 -3.440520 0.000000
CHANNELS 3 Zrotation Xrotation Yrotation
								JOINT lhand
								{
									OFFSET 0 0 0
CHANNELS 3 Zrotation Xrotation Yrotation
									JOINT LFingers
									{
OFFSET 0 -0.654330 0.000000
CHANNELS 3 Zrotation Xrotation Yrotation
										End Site
										{
OFFSET 0 -0.527530 0.000000
										}
									}
								}
								JOINT LThumb
								{
OFFSET 0 0.000000 0.000000
CHANNELS 3 Zrotation Xrotation Yrotation
									End Site
									{
OFFSET 0 -0.535590 0.535590
									}
								}
							}
						}
					}
				}
				JOINT RightCollar
				{
					OFFSET 0 0 0
					CHANNELS 3 Zrotation Yrotation Xrotation
					JOINT RightShoulder
					{
						OFFSET -3.20032 1.49783 -0.27688
CHANNELS 3 Zrotation Xrotation Yrotation
						JOINT RightElbow
						{
OFFSET 0 -5.091810 -0.000000
CHANNELS 3 Zrotation Xrotation Yrotation
							JOINT RightWrist
							{
OFFSET 0 -3.498650 -0.000000
CHANNELS 3 Zrotation Xrotation Yrotation
								JOINT rhand
								{
									OFFSET 0 0 0
CHANNELS 3 Zrotation Xrotation Yrotation
									JOINT RFingers
									{
OFFSET 0 -0.666410 0.000000
CHANNELS 3 Zrotation Xrotation Yrotation
										End Site
										{
OFFSET 0 -0.537280 0.000000
										}
									}
								}
								JOINT RThumb
								{
OFFSET 0 0.000000 0.000000
CHANNELS 3 Zrotation Xrotation Yrotation
									End Site
									{
OFFSET 0 -0.545480 0.545480
									}
								}
							}
						}
					}
				}
			}
		}
	}
}
MOTION
Frames: 10
Frame Time: 0.008333333333333333
0.437000 17.952300 -29.199900 -1.170900 5.270200 4.631900 0.000000 0.000000 0.000000 -18.202500 -4.274000 -7.622700 1.807400 8.452800 24.097900 0.321200 8.770500 -17.269900 0.114000 -2.176900 -5.994800 0.000000 0.000000 0.000000 20.997900 -0.678700 -10.347000 -2.421600 -9.693900 27.991200 0.267900 -18.153600 -23.276400 -0.026200 1.045900 -2.875100 -2.248100 -1.388800 -1.154100 2.740000 -1.819500 -2.105800 4.080800 -0.856300 -1.356800 3.663800 -6.332000 -19.601200 -8.235100 -7.871100 26.412500 -4.835400 -4.285500 11.295500 -0.000000 0.000000 0.000000 6.710500 9.261900 -17.661100 18.398100 -28.663900 4.738600 13.794200 -8.851400 -0.933900 0.000000 0.000000 0.000000 -7.125000 0.000000 0.000000 -10.129400 30.848800 -3.551500 -0.000000 0.000000 0.000000 -7.604300 5.410500 0.245500 -13.605100 -22.167300 -2.677300 -15.094700 -3.872600 2.947200 0.000000 0.000000 0.000000 7.125000 0.000000 -0.000000 9.328400 32.930500 2.790300
0.438545 17.952075 -29.201040 -1.183771 5.172089 4.638632 0.000000 0.000000 0.000000 -18.207503 -4.281728 -7.616046 1.807431 8.452936 24.098399 0.316780 8.852962 -17.302380 0.112880 -2.166423 -5.965777 0.000000 0.000000 0.000000 20.988642 -0.674258 -10.375144 -2.422199 -9.695129 27.994912 0.246727 -18.035471 -23.298873 -0.025280 1.026856 -2.822611 -2.223366 -1.431595 -1.130344 2.743193 -1.874771 -2.299918 4.074454 -0.877771 -1.565722 3.958388 -6.148492 -19.148097 -8.509706 -7.616690 26.434744 -4.926640 -4.176430 11.205271 0.000000 0.000000 0.000000 6.706758 9.780739 -17.455426 18.334726 -28.583572 4.708258 14.053615 -9.339606 1.051946 0.000000 0.000000 0.000000 -7.125000 0.000000 0.000000 -9.734582 28.834701 -3.873908 0.000000 0.000000 0.000000 -7.599437 5.861300 0.613218 -13.694749 -22.296580 -2.711174 -15.154576 -4.029112 2.967206 0.000000 0.000000 0.000000 7.125000 0.000000 0.000000 9.282805 32.952833 2.771213
0.438890 17.952590 -29.202941 -1.259409 5.093709 4.627981 0.000000 0.000000 0.000000 -18.128484 -4.231803 -7.637439 1.809661 8.457911 24.113834 0.315379 8.886326 -17.319512 0.113690 -2.173677 -5.985781 0.000000 0.000000 0.000000 21.066276 -0.624052 -10.360120 -2.420230 -9.691389 27.983177 0.251417 -18.024667 -23.236011 -0.026210 1.045018 -2.872644 -2.127613 -1.455844 -1.029006 2.767152 -1.905909 -2.472614 4.051733 -0.888002 -1.799926 4.161395 -6.026344 -18.806927 -8.731702 -7.436363 26.434377 -4.998809 -4.103050 11.130980 0.000000 0.000000 0.000000 6.694300 10.159293 -17.287262 18.226610 -28.446242 4.656792 13.695284 -8.579051 -1.628857 0.000000 0.000000 0.000000 -7.125000 0.000000 0.000000 -10.290020 31.550128 -3.430419 0.000000 0.000000 0.000000 -7.583859 6.190169 0.822515 -13.770869 -22.406154 -2.740146 -15.134944 -4.001358 3.135355 0.000000 0.000000 0.000000 7.125000 0.000000 0.000000 9.318874 33.123989 2.743259
0.439325 17.952890 -29.205011 -1.282298 5.057595 4.630317 0.000000 0.000000 0.000000 -18.109999 -4.246074 -7.643001 1.811356 8.461603 24.125134 0.312979 8.923128 -17.328660 0.112975 -2.166946 -5.967225 0.000000 0.000000 0.000000 21.084090 -0.637139 -10.380099 -2.418969 -9.689073 27.975704 0.247049 -17.977846 -23.205601 -0.026180 1.045361 -2.873681 -2.123577 -1.488437 -1.025140 2.811748 -1.949874 -2.388723 4.093977 -0.912549 -1.710577 4.130709 -5.965561 -19.026004 -8.682929 -7.359270 26.455077 -4.979708 -4.065016 11.192548 0.000000 0.000000 0.000000 6.613769 9.956612 -17.031389 18.026956 -28.191623 4.562073 13.814242 -8.763140 -0.393388 0.000000 0.000000 0.000000 -7.125000 0.000000 0.000000 -10.054835 30.301136 -3.658474 0.000000 0.000000 0.000000 -7.620803 5.968900 0.869484 -13.762547 -22.394293 -2.736995 -15.070597 -4.053086 2.752555 0.000000 0.000000 0.000000 7.125000 0.000000 0.000000 9.324694 32.730921 2.834657
0.439780 17.953120 -29.207142 -1.305316 5.009402 4.634865 0.000000 0.000000 0.000000 -18.090066 -4.236251 -7.658613 1.812640 8.464341 24.133563 0.310958 8.955426 -17.338444 0.112460 -2.161976 -5.953570 0.000000 0.000000 0.000000 21.101712 -0.628292 -10.397378 -2.418140 -9.687580 27.970899 0.246680 -17.947258 -23.161742 -0.026761 1.056371 -2.903991 -2.110735 -1.520667 -0.996738 2.846770 -1.992676 -2.395976 4.124109 -0.933478 -1.729584 4.197966 -5.874607 -19.056352 -8.749125 -7.232919 26.482926 -5.002376 -4.009475 11.213004 0.000000 0.000000 0.000000 6.547399 9.961937 -16.801501 17.872544 -27.993565 4.489336 13.822851 -8.732634 -0.138819 0.000000 0.000000 0.000000 -7.125000 0.000000 0.000000 -10.021328 30.043176 -3.708662 0.000000 0.000000 0.000000 -7.649226 5.947558 0.993618 -13.776909 -22.414893 -2.742443 -15.037853 -4.079539 2.484488 0.000000 0.000000 0.000000 7.125000 0.000000 0.000000 9.319452 32.456102 2.895616
0.440201 17.953350 -29.209327 -1.315607 4.968407 4.643211 0.000000 0.000000 0.000000 -18.083698 -4.226114 -7.674693 1.812725 8.464550 24.134149 0.308773 8.983630 -17.341102 0.111999 -2.157495 -5.941011 0.000000 0.000000 0.000000 21.105474 -0.620943 -10.422280 -2.418701 -9.688552 27.974081 0.246725 -17.921572 -23.121007 -0.027376 1.068838 -2.938212 -2.114259 -1.550306 -0.976080 2.878733 -2.032292 -2.382731 4.159615 -0.953321 -1.722886 4.241642 -5.796869 -19.131216 -8.787885 -7.126765 26.511806 -5.016113 -3.961926 11.243685 0.000000 0.000000 0.000000 6.476522 9.914211 -16.582292 17.718659 -27.795311 4.417297 13.870597 -8.769328 0.249400 0.000000 0.000000 0.000000 -7.125000 0.000000 0.000000 -9.944593 29.649968 -3.774106 0.000000 0.000000 0.000000 -7.678156 5.885124 1.107350 -13.788013 -22.430818 -2.746655 -15.020739 -4.099546 2.203173 0.000000 0.000000 0.000000 7.125000 0.000000 0.000000 9.300899 32.168141 2.955112
0.440841 17.953580 -29.211513 -1.315818 4.928338 4.653323 0.000000 0.000000 0.000000 -18.089440 -4.214985 -7.690651 1.812159 8.463418 24.130574 0.306407 9.011957 -17.342302 0.111630 -2.154607 -5.932971 0.000000 0.000000 0.000000 21.096906 -0.611657 -10.449566 -2.420162 -9.691244 27.982412 0.246069 -17.895175 -23.086447 -0.027951 1.079163 -2.966505 -2.127639 -1.578407 -0.957325 2.906395 -2.069899 -2.373761 4.196348 -0.971924 -1.719469 4.291920 -5.723374 -19.198242 -8.837712 -7.025307 26.546127 -5.035548 -3.917302 11.273778 0.000000 0.000000 0.000000 6.402863 9.875897 -16.379589 17.579233 -27.615050 4.352408 13.917715 -8.820780 0.515308 0.000000 0.000000 0.000000 -7.125000 0.000000 0.000000 -9.881480 29.380629 -3.814000 0.000000 0.000000 0.000000 -7.707288 5.839890 1.244878 -13.809522 -22.461806 -2.754902 -15.025542 -4.121279 1.995173 0.000000 0.000000 0.000000 7.125000 0.000000 0.000000 9.273623 31.955888 2.994265
0.441641 17.953710 -29.213483 -1.310719 4.886875 4.663898 0.000000 0.000000 0.000000 -18.103337 -4.209509 -7.702530 1.811259 8.461307 24.124305 0.303560 9.048117 -17.345802 0.111495 -2.152933 -5.928514 0.000000 0.000000 0.000000 21.080781 -0.602493 -10.477508 -2.422093 -9.694871 27.994249 0.243350 -17.861785 -23.060855 -0.028200 1.083800 -2.979495 -2.213046 -1.785776 -0.933634 3.108995 -2.344667 -2.400639 4.456376 -1.106039 -1.725081 4.488923 -5.283100 -19.429641 -9.272325 -6.340834 26.631861 -5.158329 -3.645382 11.383742 0.000000 0.000000 0.000000 5.885451 10.024102 -15.586713 17.491142 -27.500702 4.311667 13.945303 -8.792648 0.567611 0.000000 0.000000 0.000000 -7.125000 0.000000 0.000000 -9.855011 29.327746 -3.816039 0.000000 0.000000 0.000000 -8.137452 5.764779 2.024529 -13.818916 -22.475250 -2.758519 -15.046387 -4.221900 1.905486 0.000000 0.000000 0.000000 7.125000 0.000000 0.000000 9.246974 31.864802 3.006014
0.442562 17.953940 -29.215303 -1.307683 4.844166 4.672634 0.000000 0.000000 0.000000 -18.116434 -4.206000 -7.711915 1.810359 8.459317 24.118052 0.300414 9.089218 -17.350692 0.111339 -2.151114 -5.923464 0.000000 0.000000 0.000000 21.065964 -0.590857 -10.501719 -2.424103 -9.698586 28.006138 0.240055 -17.826079 -23.037721 -0.028180 1.083618 -2.978915 -2.313554 -2.071600 -0.902459 3.383778 -2.723564 -2.445353 4.801096 -1.291326 -1.736364 4.794519 -4.661878 -19.732371 -9.894448 -5.379875 26.725013 -5.337623 -3.263860 11.532068 0.000000 0.000000 0.000000 5.174096 10.249889 -14.540278 17.438585 -27.432323 4.287446 13.901621 -8.732441 0.464636 0.000000 0.000000 0.000000 -7.125000 0.000000 0.000000 -9.898941 29.431905 -3.808570 0.000000 0.000000 0.000000 -8.735406 5.671217 3.088297 -13.828215 -22.488550 -2.762053 -15.060760 -4.355493 1.904551 0.000000 0.000000 0.000000 7.125000 0.000000 0.000000 9.235641 31.864172 3.002378
0.443411 17.954206 -29.217099 -1.311724 4.802823 4.680836 0.000000 0.000000 0.000000 -18.121607 -4.207867 -7.720859 1.809730 8.458024 24.114136 0.297078 9.134402 -17.358148 0.110889 -2.146722 -5.911293 0.000000 0.000000 0.000000 21.059852 -0.576985 -10.523611 -2.425652 -9.701534 28.015478 0.237266 -17.793129 -23.014532 -0.028100 1.082900 -2.976930 -2.378443 -2.295083 -0.869605 3.596193 -3.019893 -2.480776 5.061099 -1.436551 -1.747932 5.068586 -4.158225 -19.965613 -10.388588 -4.611630 26.779435 -5.483447 -2.956539 11.648832 0.000000 0.000000 0.000000 4.609139 10.423667 -13.709085 17.396078 -27.377003 4.267917 13.786908 -8.700225 0.345629 0.000000 0.000000 0.000000 -7.125000 0.000000 0.000000 -9.999734 29.551436 -3.819551 0.000000 0.000000 0.000000 -9.190891 5.597280 3.956803 -13.853724 -22.525162 -2.771838 -15.062854 -4.496181 1.906000 0.000000 0.000000 0.000000 7.125000 0.000000 0.000000 9.234051 31.865700 3.001500
